<svg xmlns="http://www.w3.org/2000/svg" xmlns:xlink="http://www.w3.org/1999/xlink" viewBox="0 0 36 34"><defs><linearGradient id="linear-gradient" y1="12.33" x2="36" y2="12.33" gradientUnits="userSpaceOnUse"><stop offset="0" stop-color="#f5cd09"/><stop offset="1" stop-color="#fbac0c"/></linearGradient><linearGradient id="linear-gradient-2" x1="17" y1="22.7" x2="19" y2="22.7" xlink:href="#linear-gradient"/><linearGradient id="linear-gradient-3" x1="17" y1="13.4" x2="24" y2="13.4" xlink:href="#linear-gradient"/><linearGradient id="linear-gradient-4" x1="12" y1="13.4" x2="19" y2="13.4" xlink:href="#linear-gradient"/></defs><g id="Layer_2" data-name="Layer 2"><g id="Layer_1-2" data-name="Layer 1" fill="none" stroke-linecap="round" stroke-miterlimit="10" stroke-width="2"><path d="M29.33 23.65A6 6 0 0 0 35 17.29a6 6 0 0 0-5.45-5.94 5 5 0 0 0-1.64.19.88.88 0 0 1-1.07-.92v0c0-5.3-4-9.6-8.84-9.6S9.16 5.3 9.16 10.6v0a.88.88 0 0 1-1.07.92 5 5 0 0 0-1.64-.19A6 6 0 0 0 1 17.29a6 6 0 0 0 5.67 6.36z" stroke="url(#linear-gradient)"/><path stroke="url(#linear-gradient-2)" d="M18 33V12.41"/><path stroke="url(#linear-gradient-3)" d="M23 15.46l-5-4.12"/><path stroke="url(#linear-gradient-4)" d="M13 15.46l5-4.12"/></g></g></svg>