<svg xmlns="http://www.w3.org/2000/svg" width="131" height="22"><path id="Polygon_1_copy" data-name="Polygon 1 copy" d="M120.312.219A10.782 10.782 0 1 1 109.625 11 10.735 10.735 0 0 1 120.312.219zM29.86 3.132A2.722 2.722 0 0 0 29 .98a3.06 3.06 0 0 0-4.032 0 2.746 2.746 0 0 0-.842 2.152v15.7a2.776 2.776 0 0 0 .842 2.2 3.108 3.108 0 0 0 4.032 0 2.751 2.751 0 0 0 .857-2.2v-15.7zm77.564 0a2.722 2.722 0 0 0-.856-2.152 3.061 3.061 0 0 0-4.033 0 2.747 2.747 0 0 0-.842 2.152v15.7a2.777 2.777 0 0 0 .842 2.2 3.109 3.109 0 0 0 4.033 0 2.751 2.751 0 0 0 .856-2.2v-15.7zM2.732 14.644Q-5.468.317 10.932.317t8.2 14.327q-8.198 14.327-16.4 0zm70.455-7.232q8.182 14.369-8.182 14.369T56.824 7.412q8.181-14.369 16.363 0zm19.178 11.84Q78.112 27.5 78.112 11t14.253-8.25q14.252 8.25 0 16.502zm-57.682-4.608Q26.483.317 42.883.317t8.2 14.327q-8.198 14.327-16.4 0z" fill="#5146af" fill-rule="evenodd"/></svg>