<svg id="SVGDoc" width="131" height="22" xmlns="http://www.w3.org/2000/svg" version="1.1"><path d="M120.312.219C126.215.219 131 5.046 131 11c0 5.954-4.785 10.781-10.688 10.781-5.902 0-10.687-4.827-10.687-10.781 0-5.954 4.785-10.781 10.687-10.781zM29.86 18.835c0 .97-.286 1.703-.857 2.198a2.97 2.97 0 0 1-2.008.742c-.788 0-1.463-.247-2.024-.742-.561-.495-.842-1.228-.842-2.198V3.132c0-.929.28-1.646.842-2.152.561-.505 1.236-.758 2.024-.758.768 0 1.437.253 2.008.758.571.506.857 1.223.857 2.152zm77.564 0c0 .97-.285 1.703-.856 2.198a2.97 2.97 0 0 1-2.01.742c-.787 0-1.461-.247-2.023-.742-.56-.495-.842-1.228-.842-2.198V3.132c0-.929.281-1.646.842-2.152.562-.505 1.236-.758 2.024-.758.768 0 1.437.253 2.009.758.57.506.856 1.223.856 2.152zM2.732 14.644C-2.737 5.092-.002.316 10.934.316s13.67 4.776 8.202 14.328c-5.468 9.551-10.936 9.551-16.404 0zm70.455-7.232c5.454 9.58 2.727 14.369-8.182 14.369-10.908 0-13.636-4.79-8.181-14.369 5.454-9.58 10.909-9.58 16.363 0zm19.178 11.84c-9.502 5.501-14.253 2.75-14.253-8.25C78.112 0 82.862-2.75 92.365 2.75c9.501 5.501 9.501 11.002 0 16.502zm-57.682-4.608C29.215 5.092 31.949.316 42.885.316s13.67 4.776 8.202 14.328c-5.468 9.551-10.936 9.551-16.404 0z" fill="#5146af"/></svg>