<svg xmlns="http://www.w3.org/2000/svg" xmlns:xlink="http://www.w3.org/1999/xlink" viewBox="0 0 31.05 31.05"><defs><linearGradient id="linear-gradient" x1="26.11" y1="9.53" x2="28.11" y2="9.53" gradientUnits="userSpaceOnUse"><stop offset="0" stop-color="#f5cd09"/><stop offset="1" stop-color="#fbac0c"/></linearGradient><linearGradient id="linear-gradient-2" x1="26.11" y1="27.04" x2="28.11" y2="27.04" xlink:href="#linear-gradient"/><linearGradient id="linear-gradient-3" x1="23.24" y1="21.11" x2="31.05" y2="21.11" xlink:href="#linear-gradient"/><linearGradient id="linear-gradient-4" x1="14.49" y1="7.11" x2="16.49" y2="7.11" xlink:href="#linear-gradient"/><linearGradient id="linear-gradient-5" x1="14.49" y1="24.62" x2="16.49" y2="24.62" xlink:href="#linear-gradient"/><linearGradient id="linear-gradient-6" x1="11.62" y1="16.27" x2="19.43" y2="16.27" xlink:href="#linear-gradient"/><linearGradient id="linear-gradient-7" x1="2.87" y1="4.69" x2="4.87" y2="4.69" xlink:href="#linear-gradient"/><linearGradient id="linear-gradient-8" x1="2.87" y1="22.2" x2="4.87" y2="22.2" xlink:href="#linear-gradient"/><linearGradient id="linear-gradient-9" x1="0" y1="11.43" x2="7.81" y2="11.43" xlink:href="#linear-gradient"/></defs><g id="Layer_2" data-name="Layer 2"><g id="Layer_1-2" data-name="Layer 1" fill="none" stroke-linecap="round" stroke-miterlimit="10" stroke-width="2"><path stroke="url(#linear-gradient)" d="M27.11 1v17.07"/><path stroke="url(#linear-gradient-2)" d="M27.11 24.03v6.02"/><circle cx="27.14" cy="21.11" r="2.9" stroke="url(#linear-gradient-3)"/><path stroke="url(#linear-gradient-4)" d="M15.49 1v12.23"/><path stroke="url(#linear-gradient-5)" d="M15.49 19.19v10.86"/><circle cx="15.52" cy="16.27" r="2.9" stroke="url(#linear-gradient-6)"/><path stroke="url(#linear-gradient-7)" d="M3.87 1v7.39"/><path stroke="url(#linear-gradient-8)" d="M3.87 14.35v15.7"/><circle cx="3.9" cy="11.43" r="2.9" stroke="url(#linear-gradient-9)"/></g></g></svg>