<svg xmlns="http://www.w3.org/2000/svg" xmlns:xlink="http://www.w3.org/1999/xlink" viewBox="0 0 28.44 28.44"><defs><linearGradient id="linear-gradient" y1="14.22" x2="28.44" y2="14.22" gradientUnits="userSpaceOnUse"><stop offset="0" stop-color="#f5cd09"/><stop offset="1" stop-color="#fbac0c"/></linearGradient><linearGradient id="linear-gradient-2" x1="19.67" y1="8.07" x2="24.34" y2="8.07" xlink:href="#linear-gradient"/></defs><g id="Layer_2" data-name="Layer 2"><g id="Layer_1-2" data-name="Layer 1" fill="none" stroke-miterlimit="10" stroke-width="2"><path d="M1 26.43l2.45-7.35a.35.35 0 0 1 .12-.08L19.1 3.42h0l1.6-1.6a2.7 2.7 0 0 1 2-.82 7.81 7.81 0 0 1 3.4 1.42 7.32 7.32 0 0 1 1.34 3.33 2.7 2.7 0 0 1-.82 2L25 9.34h0L9.49 24.87a.29.29 0 0 1-.13.08L2 27.4a.77.77 0 0 1-1-.97z" stroke="url(#linear-gradient)"/><path stroke="url(#linear-gradient-2)" d="M20.38 6.45l3.25 3.25"/></g></g></svg>