<svg id="SVGDoc" width="21" height="17" xmlns="http://www.w3.org/2000/svg" version="1.1"><path d="M20.683.237c-.28-.256-.655-.31-1.123-.158L.983 7.006C.358 7.248.03 7.52 0 7.821c-.03.303.218.529.749.68l4.773 1.448 11.043-6.746c.156-.09.305-.143.445-.158.14-.015.234.015.28.09.048.076.008.159-.116.25l-8.938 7.832-.374 4.754c.249 0 .451-.045.608-.135.094-.06.218-.166.374-.317l2.34-2.174 4.82 3.442c.436.242.803.294 1.1.158.296-.136.506-.46.631-.974l3.182-14.398c.125-.634.047-1.079-.234-1.336z" fill="#eae6ff"/></svg>