<svg xmlns="http://www.w3.org/2000/svg" xmlns:xlink="http://www.w3.org/1999/xlink" viewBox="0 0 27.74 22.54"><defs><linearGradient id="linear-gradient" y1=".87" x2="27.74" y2=".87" gradientUnits="userSpaceOnUse"><stop offset="0" stop-color="#f5cd09"/><stop offset="1" stop-color="#fbac0c"/></linearGradient><linearGradient id="linear-gradient-2" x1="12.13" y1="6.07" x2="27.74" y2="6.07" xlink:href="#linear-gradient"/><linearGradient id="linear-gradient-3" x1="12.13" y1="11.27" x2="27.74" y2="11.27" xlink:href="#linear-gradient"/><linearGradient id="linear-gradient-4" x1="12.13" y1="16.47" x2="27.74" y2="16.47" xlink:href="#linear-gradient"/><linearGradient id="linear-gradient-5" y1="21.67" x2="27.74" y2="21.67" xlink:href="#linear-gradient"/><linearGradient id="linear-gradient-6" y1="11.27" x2="8.67" y2="11.27" xlink:href="#linear-gradient"/></defs><g id="Layer_2" data-name="Layer 2"><g id="Layer_1-2" data-name="Layer 1"><path d="M.87 1.73h26a.87.87 0 1 0 0-1.73h-26a.87.87 0 1 0 0 1.73z" fill="url(#linear-gradient)"/><path d="M26.87 5.2H13a.87.87 0 1 0 0 1.73h13.87a.87.87 0 1 0 0-1.73z" fill="url(#linear-gradient-2)"/><path d="M26.87 10.4H13a.87.87 0 1 0 0 1.73h13.87a.87.87 0 1 0 0-1.73z" fill="url(#linear-gradient-3)"/><path d="M26.87 15.6H13a.87.87 0 1 0 0 1.73h13.87a.87.87 0 1 0 0-1.73z" fill="url(#linear-gradient-4)"/><path d="M26.87 20.8h-26a.87.87 0 1 0 0 1.74h26a.87.87 0 1 0 0-1.74z" fill="url(#linear-gradient-5)"/><path d="M.48 17.24a.75.75 0 0 0 .39.09.85.85 0 0 0 .52-.17L8.32 12a.86.86 0 0 0 .35-.69.89.89 0 0 0-.35-.7L1.39 5.37a.9.9 0 0 0-.91-.08.88.88 0 0 0-.48.78v10.4a.86.86 0 0 0 .48.77zM1.73 7.8l4.63 3.47-4.63 3.46z" fill="url(#linear-gradient-6)"/></g></g></svg>