<svg xmlns="http://www.w3.org/2000/svg" viewBox="0 0 342.69 264.39"><defs><style>.cls-1,.cls-11,.cls-3{fill:none}.cls-11,.cls-3{stroke:#e9f2f4;stroke-miterlimit:10}.cls-3{stroke-width:.25px}.cls-4{fill:#7a74d1}.cls-5{fill:#fff}.cls-6{fill:#e9f2f4}.cls-8{fill:#7762ef}.cls-10{fill:#fca70c}.cls-13{fill:#453087}.cls-14{fill:#a6aeba}.cls-15{fill:#d2dceb}.cls-16{fill:#ba7404}.cls-17{fill:#fec4ad}.cls-18{fill:#3b2e7a}.cls-19{fill:#5146af}.cls-20{fill:#133a50}.cls-21{fill:#364469}.cls-25{fill:#c4c3fc}</style><clipPath id="clip-path"><circle class="cls-1" cx="155.13" cy="43.42" r="15.19" transform="rotate(-80.83 155.124 43.418)"/></clipPath><linearGradient id="linear-gradient" x1="401.62" y1="-78.95" x2="425.92" y2="-79.21" gradientTransform="matrix(.92 -.32 .45 .93 -207.62 318.35)" gradientUnits="userSpaceOnUse"><stop offset="0" stop-color="#eef4fb"/><stop offset=".31" stop-color="#e3edf8"/><stop offset="1" stop-color="#cfe1f3"/></linearGradient><clipPath id="clip-path-2"><circle class="cls-1" cx="265.67" cy="83.31" r="13.8" transform="rotate(-23.93 265.71 83.329)"/></clipPath></defs><g id="Layer_2" data-name="Layer 2"><g id="OBJECTS"><path d="M339.9 158.21c-5.9-16.54-15.26-21.57-24.14-32.21-10.85-13-18.17-22.36-15.35-39C305 59.8 307-8.08 234.92.79c-25.82 3.18-46.23 23-61.08 42.73-12.63 16.81-35.36 18.3-53.65 22.21C97.71 70.55 74.82 77.82 54 88.48 11.2 110.43-1.59 142 .15 182.36c.53 12.2 2.26 31.41 22.86 53.89 27.81 30.35 68.23 34.41 116.87 20.48 11.13-3.19 21.65-8.2 32.61-12a153.58 153.58 0 0 1 35.19-7.65c27.94-2.7 56.9 2.19 83.7-6.15a88.26 88.26 0 0 0 37.43-23.22c12.8-13.36 17.35-32.06 11.09-49.5z" fill="#fbfaff"/><path class="cls-3" d="M77.28 53.35v10.6"/><path class="cls-4" d="M82.6 52.61a5.32 5.32 0 1 1-5.32-5.31 5.32 5.32 0 0 1 5.32 5.31z"/><path class="cls-3" d="M77.28 35.96v10.28"/><path class="cls-4" d="M82.6 34.33A5.32 5.32 0 1 1 77.28 29a5.32 5.32 0 0 1 5.32 5.33z"/><path class="cls-5" d="M76.86 36.84l-2.46-3.16 2.23.93 5.12-4.48-4.89 6.71z"/><path class="cls-4" d="M82.6 71.25a5.32 5.32 0 1 1-5.32-5.32 5.32 5.32 0 0 1 5.32 5.32z"/><path class="cls-5" d="M76.86 54.7l-2.46-3.16 2.23.93 5.12-4.48-4.89 6.71zm0 18.85l-2.46-3.17 2.23.94 5.12-4.49-4.89 6.72z"/><path class="cls-4" d="M85.74 30.69h21.73v2.93H85.74z"/><path class="cls-6" d="M85.74 34.86h38.03v8.18H85.74zm0 18.21h38.03v8.18H85.74zm0 18.43h38.03v8.18H85.74z"/><path class="cls-4" d="M85.74 49.09h21.73v2.93H85.74zm0 18.26h21.73v2.93H85.74z"/><g clip-path="url(#clip-path)"><circle class="cls-8" cx="155.13" cy="43.42" r="15.19" transform="rotate(-80.83 155.124 43.418)"/><path class="cls-6" d="M160.23 27.5l-5.1 15.91-14.62-14.05 20.71-4.65-.99 2.79z"/><path fill="#508cff" d="M160.23 27.5l-5.1 15.91 17.36-10.67-11.27-8.03-.99 2.79z"/><path class="cls-10" d="M155.13 58.6V43.41l17.36-10.67 1.32 18.06-15.1 9.89-3.58-2.09z"/></g><path class="cls-11" d="M185.4 28.63h43.36M185.4 31.6h43.36m-43.36 2.98h43.36m-43.36 2.98h43.36m-43.36 2.98h43.36m-43.36 2.98h43.36m-43.36 3.91h43.36m-43.36 2.91h43.36m-43.36 2.91h43.36m-43.36 2.91h43.36"/><path d="M89.76 239.33h1.72l14-68.26h-3.54l-12.18 68.26zm132.13 0h-1.72l-14-68.26h3.55l12.17 68.26z" fill="#c7c7c7"/><path class="cls-13" d="M87.5 130a4.81 4.81 0 0 0-1.11 2.22 3.42 3.42 0 0 1 1.15-1.56c.7-.44 1.64-.38 2.35-.82a3.85 3.85 0 0 0 1.31-1.9 5.37 5.37 0 0 1-1.82 1A3.76 3.76 0 0 0 87.5 130z"/><path class="cls-14" transform="rotate(180 94.82 219.055)" d="M93.52 206.42h2.61v25.26h-2.61z"/><path class="cls-15" transform="rotate(180 94.82 204.58)" d="M92.72 202.74h4.19v3.68h-4.19z"/><path class="cls-15" transform="rotate(180 94.82 225.905)" d="M93.24 221.96h3.16v7.88h-3.16z"/><path class="cls-15" transform="rotate(180 94.82 231.685)" d="M92.72 229.85h4.19v3.68h-4.19z"/><path class="cls-14" transform="rotate(180 94.82 199.26)" d="M89.74 195.78H99.9v6.96H89.74z"/><rect class="cls-14" x="81.15" y="193.7" width="28.34" height="5.21" rx=".54" ry=".54" transform="rotate(180 95.325 196.305)"/><path class="cls-14" d="M84.72 237.04l8-3.97v-2.77l-9.05 6.07 1.05.67z"/><circle class="cls-14" cx="83.67" cy="237.82" r="1.87"/><circle class="cls-14" cx="94.82" cy="237.82" r="1.87"/><path class="cls-14" d="M104.92 237.04l-8.01-3.97v-2.77l9.06 6.07-1.05.67z"/><path class="cls-14" d="M107.84 237.82a1.88 1.88 0 1 1-1.87-1.88 1.87 1.87 0 0 1 1.87 1.88z"/><path class="cls-14" transform="rotate(180 94.82 234.74)" d="M94.31 231.69h1.02v6.11h-1.02z"/><path class="cls-16" d="M76.44 196.55a2 2 0 0 1-2-1.5c-.69-2.83-1.93-8.1-2-21.27a126.58 126.58 0 0 0-4.09-30.25 3 3 0 0 1 1.44-3.28 4.15 4.15 0 0 1 2-.54h25.35s10.38 18.57 11.74 24.93 3.27 30.8 3.27 30.8z"/><path class="cls-10" d="M77.27 196.6s-2.36-4.62-2.4-22.82c0-15-3-27.33-3.87-32.1a1.67 1.67 0 0 1 1.65-2h26.86s10.39 18.57 11.75 24.93 3.26 30.8 3.26 30.8z"/><path class="cls-16" d="M74.89 191.07h25.57a1.31 1.31 0 0 1 1.31 1.31v4.23H74.89v-5.54z" transform="rotate(180 88.33 193.835)"/><path class="cls-10" d="M82.79 191.07h37.79V195a1.64 1.64 0 0 1-1.64 1.64H82.79a1.64 1.64 0 0 1-1.64-1.64v-2.3a1.64 1.64 0 0 1 1.64-1.63z" transform="rotate(180 100.865 193.835)"/><path class="cls-17" d="M85 133.31s3.9-1.24 4.3-2.94c.32-1.38.83-5.67.83-5.67h6.77a32 32 0 0 0 0 5.08c.65 3.08 4.52 4.1 4.52 4.1l.55 9.64-10 8.42-9.69-9.74z"/><path id="_Path_" data-name="&lt;Path&gt;" class="cls-17" d="M100.54 114.19c1.71 2.29 1.37 2.62 1.13 5.78a25.83 25.83 0 0 1-1.35 6.5c-.47 1.19-2.89 6.3-7.21 4.44a13.35 13.35 0 0 1-5.89-5.34 17.23 17.23 0 0 1-.92-5.73v-6.39c.29-5.53 11.09-3.45 14.24.74z"/><path class="cls-18" d="M111.78 179.18c3.72-.81 5.8.39 8 3.07s1.34 9.13 0 14.48-6.46 41-6.46 41h-3.79s-1-14-1.64-24.29 1.62-24.93 1.62-24.93l-14.46-9.31s13.39.7 16.73-.02z"/><path class="cls-18" d="M111.61 174c2.84 2.65 11.2 7.12 9.53 12.65l-11.2 4.75s-11.38-4.13-14.87-12.24l-3.49-8.11 7.5-3z"/><path class="cls-18" d="M103.43 181.14c2.06 1.49 7.62 3.94 6.51 10.28-.57 3.23-9.68 22.74-14.65 30.93-2.53 4.18-7.05 12.93-7.05 12.93l-4.23 1s3.26-10.61 5.49-20.42 8.71-21.51 8.71-21.51a67.25 67.25 0 0 0-8.35-4.79c-3.57-1.56-5.49-2.2-.14-7.32s9.69-3.99 13.71-1.1z"/><path class="cls-17" d="M111.61 151a25.94 25.94 0 0 0 2.2 6.41c.88 1.55 19.25 8.32 19.25 8.32h-10.72s-10.22-1.34-13.13-5.25a70.43 70.43 0 0 1-5.62-9.48z"/><path class="cls-4" d="M105 135.22c1.9.84 3.65 5.64 5 9.73a26.23 26.23 0 0 1 1.53 6s-4.91 2.81-7.52 2.11c0 0-2.47-8.88-.77-13.37z"/><path class="cls-4" d="M95.56 174.34c5.35-.22 10.7-.35 16-.32-2.6-1.69-4.9-2.86-5.4-3.36-1.11-1.12-.73-11 .08-14.13s.77-6.65.18-8.24-1.42-13.07-1.42-13.07l-3.61-1.34s1.11 8.32-7.64 8.32-8.75-8.89-8.75-8.89l-5.6 1.24s-.42 10.84-.21 15.76 2.55 13.44 3.22 17.9c.52 3.46-.45 5.59-1.11 8.14a35.63 35.63 0 0 1 14.26-2.01z"/><path class="cls-10" d="M88.5 234.56c-1.2-.24-1.62.24-2.71 1a4.56 4.56 0 0 1-2.28.72v3.25h8.36zm25.57.6s-.12 1.13-1.92 1.64a3.1 3.1 0 0 1-3-1l-.4 3.68 14.26.09z"/><path class="cls-17" d="M114.32 164.85c-1.6-.19-3.14-1.68-9.34-1.76a94.21 94.21 0 0 1-10.47-2 21.93 21.93 0 0 1-5.91-2.55s-2.28-8.47-3.14-13.85c-2.52-.27-5-.6-7.54-1-.09 6.71 4.67 18.65 6.25 19.84 3.08 2.32 10.32 2.2 12.06 2.23 4 .08 21.2.54 21.2.54s1.32-.92-3.11-1.45z"/><path class="cls-4" d="M87.48 153.14s-2.28-13.41-3-14.82c-3.42-7.29-8.11-3.41-7.43 2.24.3 2.4.49 8.61 1.7 14.47a19.17 19.17 0 0 0 8.73-1.89z"/><path class="cls-14" d="M110.67 166.24h6.76l6.75-23.65h-5.13l-8.38 23.65z"/><path class="cls-15" d="M112.61 166.24h26.38l6.76-23.65h-26.38l-6.76 23.65z"/><path class="cls-15" transform="rotate(180 123.855 166.585)" d="M108.73 165.7h30.26v1.76h-30.26z"/><path class="cls-14" transform="rotate(180 101.16 166.585)" d="M93.6 165.7h15.13v1.76H93.6z"/><path class="cls-14" d="M127.09 155.56c-.76 1.81-.22 3.77 1.2 4.37s3.21-.38 4-2.19.23-3.76-1.2-4.36-3.23.37-4 2.18z"/><path class="cls-18" d="M81.26 176.35c-1 4.8 1.36 15.27 16.95 18l8.9 3.6a11.69 11.69 0 0 0 2.42-9.47c-1.11-5.5-7.36-7.6-11.47-14.25 0 0-6.46-2.7-10.62-1.25a18.51 18.51 0 0 0-6.18 3.37z"/><path class="cls-13" d="M101.87 117.46s-1.88.08-4.18-3.4c0 0 .25 1.58-2 3.7s-4.25 1.54-4.59 2.56a8.33 8.33 0 0 0-.37 2s-.37 0-.74-.56c-.24-.36-.36-1.24-.77-1.51-1-.68-2.78.23-2.21 2.22a4.24 4.24 0 0 0 1.69 2.08c0 3.4 1.36 4.45 1.36 4.45s-2.3 1-3.47.56c-1.69-.69-2.11-1.74-2-3.65a4.51 4.51 0 0 1-2.26-1.17c-2.35-2.33.36-9 1.45-9.79 0 0-2.57-3.64.66-6.08s4.54 1.53 4.54 1.53c1.09-.82 5.54-1.1 7.82-.25 6.34 2.33 5.07 7.31 5.07 7.31zM97.54 114c.2 1.3 0 4.31-3.47 6.68"/><path class="cls-14" d="M240.07 206.42h2.61v25.26h-2.61z"/><path class="cls-15" d="M239.27 202.74h4.19v3.68h-4.19zm.52 19.22h3.16v7.88h-3.16zm-.52 7.89h4.19v3.68h-4.19z"/><path class="cls-14" d="M236.29 195.78h10.16v6.96h-10.16z"/><rect class="cls-14" x="226.69" y="193.7" width="28.34" height="5.21" rx=".54" ry=".54"/><path class="cls-14" d="M251.47 237.04l-8-3.97v-2.77l9.05 6.07-1.05.67z"/><path class="cls-14" d="M254.39 237.82a1.88 1.88 0 1 1-1.87-1.88 1.87 1.87 0 0 1 1.87 1.88z"/><circle class="cls-14" cx="241.37" cy="237.82" r="1.87"/><path class="cls-14" d="M231.27 237.04l8-3.97v-2.77l-9.05 6.07 1.05.67z"/><circle class="cls-14" cx="230.22" cy="237.82" r="1.87"/><path class="cls-14" d="M240.86 231.69h1.02v6.11h-1.02z"/><path class="cls-16" d="M259.75 196.55a2 2 0 0 0 2-1.5c.69-2.83 1.93-8.1 2-21.27 0-14.54 7.65-25.59 8.69-30.25a3 3 0 0 0-1.44-3.28 4.18 4.18 0 0 0-2-.54h-29.95s-10.38 18.57-11.74 24.93-3.27 30.8-3.27 30.8z"/><path class="cls-10" d="M258.92 196.6s2.36-4.62 2.4-22.82c0-15 7.61-27.33 8.47-32.1a1.68 1.68 0 0 0-1.65-2h-31.47s-10.38 18.57-11.74 24.93-3.26 30.8-3.26 30.8z"/><path class="cls-16" d="M226.15 191.07h35.15v4.23a1.31 1.31 0 0 1-1.3 1.3h-33.85v-5.54.01z"/><path class="cls-10" d="M217.25 191.07h11.65a1.64 1.64 0 0 1 1.64 1.64v3.9h-13.3a1.64 1.64 0 0 1-1.64-1.64v-2.27a1.64 1.64 0 0 1 1.65-1.63z"/><path class="cls-17" d="M232.38 134.24c-2.43 2.43-2.6 14.6-5.06 20.91 0 0-16.78 6.56-24.42 8.49l2.65 2.8s22.73-5.47 25.61-7.39c4.41-2.93 7-14.79 7.39-20.72s-3.63-6.62-6.17-4.09z"/><path class="cls-17" d="M204.76 164.08l-1.86-.44s-3.84-.35-5.06-.53-2.7 1.23-4.38 1.76a15.46 15.46 0 0 0-3.3 1.57h1.34l2.73.44 2.46-.44a23.67 23.67 0 0 1 4.63 0 20.17 20.17 0 0 0 4.23 0zm16.61 12.26c-5.21 1.73-11.59 4.49-13.46 6.23s-5.56 4.21-2.58 13.77c1.89 6.1 10.17 37 10.17 37l4.19-.75s-1.49-17.92-3-31.33c-.73-6.5-1-8.31-1-8.31l5.63-2.29c7.13-2.94 4.68-15.19 4.68-15.19z"/><path class="cls-17" d="M209.71 180.71c-1.87 1.74-3.19 1.15-6 10.76-1.8 6.14-8.34 37.09-8.34 37.09l3.91 1.7c5.28-14.8 5.28-14.78 11.45-26.79A53.27 53.27 0 0 0 215 191.9l11.41-.68c7.13-2.93 4.69-13.34 4.69-13.34s-19.52 1.12-21.39 2.83z"/><path class="cls-19" d="M252.93 171.5c0 5 3.62 10.52-.57 16.21-3.79 5.14-26 3.51-26 3.51s3.13-5.42.16-9.52c-1.9-2.62-6.27-5-6.27-5l12.4-4 10-7.74z"/><path class="cls-18" d="M240.49 133.14c-.67 2.28-5.43 2.24-8.94-2s-6.06-11.51-2.55-16.64 8.19 4.8 9.79 10.08a37.37 37.37 0 0 1 1.7 8.56z"/><path class="cls-17" d="M229.42 114.41c-.94 1.12 0 5.38.12 6 .32 1.23-.3 2.91.06 3.19s.53.06 1.13.2c.07 0 1.72 3.25 2 3.92.44 1 2.84-.78 3.56 0 .53.56.55 1.59.73 2.86l-1.4 5.66 11.42-2.2a55.8 55.8 0 0 1-4.18-7.24c-.86-2.27.21-4.75-.07-7.81s-1.65-7-6-7.37a8.54 8.54 0 0 0-7.37 2.79z"/><path class="cls-18" d="M233 172a24.49 24.49 0 0 1 7.66 0c4.75.64 11.79-.69 11.79-.69s-2.89-14.88-2.71-21.63.71-14 .71-14l-12.65-2.13s-3.07 1.09-4.8 6-1.43 26.26 0 32.45z"/><path class="cls-4" d="M237 130.57c-.93.94-4 2.14-4 3.47s-2.4 12.79-2.26 15.18 1 11.51.48 14.31a70.3 70.3 0 0 0-.53 9L233 172s-.66-15.84 0-21.7 4.8-16.65 4.8-16.65l-1.56-.53z"/><path class="cls-4" d="M241.63 133.64l-3.8-.13s-1.28 5.86-1.28 17.14a182.9 182.9 0 0 0 1.94 22.35 23.33 23.33 0 0 0 6.95 1.27 16.47 16.47 0 0 0 7-1.33 144.72 144.72 0 0 1 0-18.35c.67-9.06 3.09-11.12 2.62-17.05-.78-9.84-9.68-6.39-9.68-6.39z"/><path class="cls-19" d="M237.83 133.51s6.13-2.94 7.06-4.8a6.43 6.43 0 0 1 .53 2.4c-.13.8-6 6.39-6 6.39z"/><path class="cls-18" d="M242.9 134.2c1.51-7.56-2.52-9.78-6.92-12.48a22.78 22.78 0 0 1-7-7.24s1.7-5.54 6.67-6.67 11.31 2 12.91 9.79c1.14 5.55 2.62 7.51 6.39 10.22 4.54 3.27 5.9 11.6.6 15.61-4.9 3.72-2.07-5.1-3.89-10.05-.3-.84-4.11 3.42-6.24 4.12s-2.76-2.08-2.52-3.3z"/><path class="cls-19" d="M237 130.57a3.34 3.34 0 0 0 .8 2.94l-2.27 3.19s-.66-2.53 0-3.59 1.47-2.54 1.47-2.54z"/><path class="cls-20" d="M215.2 231.14s.13 1.12 1.93 1.63a3.07 3.07 0 0 0 3-1l.4 3.68-5.76 4.06H210l2.58-2.88zM196 226a2 2 0 0 0 .72 2.61 3.07 3.07 0 0 0 3.18 0l-.74 3.62-13.6-4.23z"/><path class="cls-17" d="M248.77 135.39c-1.32 3.17-5.18 13.58-7.64 19.9 0 0-17.88 5.73-25.52 7.65l2.65 2.8s21.81-3.34 26.53-5.54 9.34-17.61 10.15-21.65c1.17-5.83-4.75-6.55-6.17-3.16z"/><path class="cls-17" d="M217.47 163.38l-1.86-.44s-3.84-.35-5.06-.52-2.7 1.22-4.38 1.75a16 16 0 0 0-3.3 1.57h1.34l2.73.45 2.46-.45a24.54 24.54 0 0 1 4.63 0 20.17 20.17 0 0 0 4.23 0z"/><path class="cls-21" d="M146.58 87.15l-4.85 11.24 1.25.54 4.85-11.25a.26.26 0 0 0-.13-.33l-.79-.34a.26.26 0 0 0-.33.14z"/><path class="cls-21" d="M146.62 89.89l-.81-.34 1.36-3.16a.44.44 0 0 1 .58-.23.45.45 0 0 1 .23.58z"/><path class="cls-17" d="M159.33 113.85s-4.77 13.09-6.5 13c-1.31 0-10-12-11.42-14s-4.13-6.91-4.13-6.91l3.55-1.11s6.1 7.36 7.67 8.68 2.23 1.81 2.23 1.81l1.81-5z"/><path class="cls-19" d="M156.69 100.2c-1.92.51-2.58 2.22-3.4 5.75a71.34 71.34 0 0 1-2 6.85l6.31 2.94s1.14-6.27 1.56-10.23-.79-5.75-2.47-5.31z"/><path class="cls-20" d="M182.62 235v4.64h-8.91s.34-1.68 4.56-2.45l.62-2.19zm-18.83 0v4.64h-8.92s.34-1.68 4.57-2.45l.62-2.19z"/><path class="cls-13" d="M180.68 141.53s1.62 14.75 1.67 30.59 1 62.91 1 62.91H177s-6.6-45.48-9-55.67-8.63-37.64-8.63-37.64z"/><path class="cls-17" d="M170.84 88s.41 3.23.75 4.87a12.94 12.94 0 0 0 .88 3 36.69 36.69 0 0 0 3.95 4.5s-10.6 5.6-13.72 5.6-2-6.26-2-6.26 3.4-2.69 3.91-4a30.23 30.23 0 0 0 .79-5.29z"/><path class="cls-13" d="M166.76 157.71s-1.19 24.14-1.43 28.89 0 48.41 0 48.41-6 .16-6 0-5.65-46-6.38-57.74-.31-25.6-1.28-27.21 2.63-8.45 2.63-8.45l8.48 2.26z"/><path class="cls-8" d="M174.26 97.19l10.91 4.71s-2.16 8.82-2.28 12.33-1.38 31.22-1.38 31.22-3.34 5.19-19.45 3.12c-6.21-.79-9.27-3.82-9.27-3.82s1.75-30.52 2.22-34 1.68-10.52 1.68-10.52l5.31-1.65 2.14 3.2z"/><path class="cls-19" d="M173.78 95.29l-9.69 6.49 2.66 3.06 7.51-7.65-.48-1.9z"/><path class="cls-19" d="M164.09 101.78l-2.64 2.12.5-5.32.99-1.39 1.15 4.59z"/><path id="_Path_2" data-name="&lt;Path&gt;" d="M153.88 120.8l-9.31 2.69a2.16 2.16 0 0 1-2.48-1.1L133 103a1.44 1.44 0 0 1 1-2.07l9.23-2.73c1.68-.16 2.52.16 2.95 1.06l9.08 19.22c.41.92.25 1.52-1.38 2.32z" fill="#97a3cc"/><path id="_Path_3" data-name="&lt;Path&gt;" d="M153.36 121l-9.36 2.7a2.19 2.19 0 0 1-2.5-1.09l-9.1-19.47a1.45 1.45 0 0 1 1-2.07l9.28-2.74a2.25 2.25 0 0 1 2.59 1.1l9.16 19.41a1.52 1.52 0 0 1-1.07 2.16z" fill="url(#linear-gradient)"/><path class="cls-17" d="M180.38 115.78s-8.65 14.37-9.81 14.87-16.09-9.23-18.9-11.05-5.15-3.59-5.5-3.88a14.5 14.5 0 0 1-1.15-3.21 4.7 4.7 0 0 0 .39-.52l.37.2-.2-1.17.35-.66.34.12.12-1.18.51-.88s1.47 1.66 2.38 2.65a13.46 13.46 0 0 0 2 1.73 14.8 14.8 0 0 1 0-1.9 5.52 5.52 0 0 0-.16-1.4l1.44.87s1.28 4 1.53 4.34a7.28 7.28 0 0 0 4.37 4.11 101 101 0 0 0 9.65 3.26c-.25 0 5.64-10.74 5.64-10.74z"/><path class="cls-19" d="M185.58 107.33c-.83 3.91-6.56 12.45-6.56 12.45l-7-5.26s2.76-5.5 4.29-8.39c1.7-3.19 3.29-7.06 6.29-5.93s3.64 3.99 2.98 7.13z"/><path class="cls-17" d="M158.52 79.73c-.75.68-2 2-1.9 2.84a30.9 30.9 0 0 0 .67 4.48c.39 1.32 1.17 4.79 1.73 6.31s1.22 3.61 1.69 3.8a14.54 14.54 0 0 0 5.34-1.09c.78-.57 4.87-5.07 4-8.4 0 0 1.07.14 1.73-3.15.17-.86-3.31-3.3-3.86-4.15-1.31-2.07-6.12-.44-7.5-.33a2.92 2.92 0 0 1-1.9-.31z"/><path d="M156.62 82.57s.27-1.17 1.34-.92a11.12 11.12 0 0 0 7.71-1.65 7.26 7.26 0 0 0 1 2.55 4.87 4.87 0 0 1 1.09 2.1 1.49 1.49 0 0 0 1 .85s.38-1.85 1.22-2c1.64-.26 1.44 2 .76 2.68a12.56 12.56 0 0 1-1.38 1.28 8.53 8.53 0 0 0 .52 1.65 7.81 7.81 0 0 0 1.35 1.65s.44-4.42 1.48-6.44 1-5.75-2-6.54a4.28 4.28 0 0 0-4.71-3.21c-4 .16-7.13 1.75-8.88 1.58a5.43 5.43 0 0 1-2.27-.53s-.87 2.87.27 4.39a10.12 10.12 0 0 1 1.5 2.56z" fill="#483a99"/><path class="cls-14" d="M205.28 166.24h-3.71l-3.7-23.65h2.81l4.6 23.65z"/><path class="cls-15" d="M204.21 166.24h-14.46l-3.71-23.65h14.47l3.7 23.65z"/><path class="cls-15" d="M189.55 165.7h15.72v1.76h-15.72z"/><path class="cls-14" d="M205.28 165.7h19.83v1.76h-19.83zm-9.01-10.14c.42 1.81.12 3.77-.66 4.37s-1.75-.38-2.17-2.19-.13-3.76.65-4.36 1.76.37 2.18 2.18z"/><path class="cls-25" transform="rotate(180 152.705 169.36)" d="M63.67 167.65h178.06v3.42H63.67z"/><path class="cls-25" d="M82.67 239.33h1.72l14-68.26h-3.54l-12.18 68.26zm132.13 0h-1.72l-14-68.26h3.55l12.17 68.26z"/><g clip-path="url(#clip-path-2)"><circle class="cls-8" cx="265.67" cy="83.31" r="13.8" transform="rotate(-23.93 265.71 83.329)"/><path class="cls-6" d="M270.3 68.86l-4.63 14.45-13.29-12.77 18.83-4.23-.91 2.55z"/><path class="cls-6" d="M270.3 68.86l-4.63 14.45 17.97 1.57-6.36-14.41-6.98-1.61z"/><path class="cls-10" d="M265.67 97.11v-13.8h15.45l1.53 6.72-13.72 8.98-3.26-1.9z"/></g><circle class="cls-5" cx="265.67" cy="83.31" r="7.82" transform="rotate(-76.67 265.684 83.313)"/><path class="cls-11" d="M256.65 101.38h19.3m-19.3 4.23h19.3m-19.3 4.23h19.3"/><path class="cls-6" d="M198.35 69.88h29.97v29.67h-29.97z"/><path class="cls-5" d="M202.84 74.38h10.5v21.2h-10.5z"/><path class="cls-11" d="M198.35 64.2h29.97v5.67h-29.97z"/><path class="cls-10" d="M224.71 77.84a3.73 3.73 0 1 1-3.71-3.73 3.73 3.73 0 0 1 3.71 3.73z"/><path class="cls-5" d="M220.69 79.31l-1.72-2.22 1.56.65 3.59-3.14-3.43 4.71z"/><circle class="cls-10" cx="220.98" cy="88.9" r="3.73"/><path class="cls-5" d="M220.69 90.37l-1.72-2.22 1.56.65 3.59-3.14-3.43 4.71z"/><path class="cls-10" d="M249.77 43.02h5.16v10.85h-5.16zm7.56 4.07h5.16v6.78h-5.16zm7.57-3.22h5.16v10h-5.16zm7.56-7.7h5.16v17.7h-5.16z"/><path stroke="#ffb600" stroke-miterlimit="10" fill="none" d="M249.77 39.39l5.17-1.8 4.98 1.8L272.84 29"/><path fill="#ffb600" d="M275.04 27.23l-2.09 3.76-.28-1.86-1.75-.68 4.12-1.22z"/><path class="cls-3" d="M244.73 57.96h37.99V34.83"/></g></g></svg>