<svg xmlns="http://www.w3.org/2000/svg" xmlns:xlink="http://www.w3.org/1999/xlink" viewBox="0 0 37.01 30.65"><defs><linearGradient id="linear-gradient" y1="15.32" x2="37.01" y2="15.32" gradientUnits="userSpaceOnUse"><stop offset="0" stop-color="#f5cd09"/><stop offset="1" stop-color="#fbac0c"/></linearGradient><linearGradient id="linear-gradient-2" x1="29.08" y1="15.32" x2="32.4" y2="15.32" xlink:href="#linear-gradient"/></defs><g id="Layer_2" data-name="Layer 2"><g id="Layer_1-2" data-name="Layer 1"><path d="M34.05 0h-29A5.09 5.09 0 0 0 0 5.08v20.49a5.09 5.09 0 0 0 5.08 5.08h29a3 3 0 0 0 3-3V3a3 3 0 0 0-3.03-3zm0 28.65h-29A3.08 3.08 0 0 1 2 25.57V5.08A3.08 3.08 0 0 1 5.08 2h29a1 1 0 0 1 1 1v7.59h-6.91a3.26 3.26 0 0 0-3.26 3.25v3.05a3.26 3.26 0 0 0 3.26 3.25H35v7.59a1 1 0 0 1-.95.92zM35 18.1h-6.83a1.25 1.25 0 0 1-1.26-1.25V13.8a1.25 1.25 0 0 1 1.26-1.25H35z" fill="url(#linear-gradient)"/><path d="M30.74 17a1.66 1.66 0 1 0-1.66-1.66A1.66 1.66 0 0 0 30.74 17zm0-2a.35.35 0 1 1-.34.34.34.34 0 0 1 .34-.34z" fill="url(#linear-gradient-2)"/></g></g></svg>