<svg xmlns="http://www.w3.org/2000/svg" xmlns:xlink="http://www.w3.org/1999/xlink" viewBox="0 0 36.53 37.42"><defs><linearGradient id="linear-gradient" y1="18.71" x2="36.53" y2="18.71" gradientUnits="userSpaceOnUse"><stop offset="0" stop-color="#f5cd09"/><stop offset="1" stop-color="#fbac0c"/></linearGradient><linearGradient id="linear-gradient-2" x1="28.71" y1="22.29" x2="31.98" y2="22.29" xlink:href="#linear-gradient"/></defs><g id="Layer_2" data-name="Layer 2"><g id="Layer_1-2" data-name="Layer 1"><path d="M33.61 7.16h-4.94V3.79a3.78 3.78 0 0 0-5.1-3.55l-18.79 7a5 5 0 0 0-4.78 5V32.4a5 5 0 0 0 5 5h28.61a2.93 2.93 0 0 0 2.92-2.93V10.09a2.93 2.93 0 0 0-2.92-2.93zm-9.35-5.07a1.81 1.81 0 0 1 2.44 1.7v3.37H10.53zm9.35 33.35H5a3 3 0 0 1-3-3V12.18a3 3 0 0 1 3-3.04h28.61a1 1 0 0 1 1 .95v7.49H27.8a3.21 3.21 0 0 0-3.21 3.21v3A3.21 3.21 0 0 0 27.8 27h6.76v7.49a1 1 0 0 1-.95.95zm1-10.41H27.8a1.25 1.25 0 0 1-1.24-1.24v-3a1.25 1.25 0 0 1 1.24-1.24h6.76z" fill="url(#linear-gradient)"/><path d="M30.34 23.93a1.64 1.64 0 1 0-1.63-1.64 1.64 1.64 0 0 0 1.63 1.64zm0-2a.34.34 0 1 1 0 .67.34.34 0 0 1 0-.67z" fill="url(#linear-gradient-2)"/></g></g></svg>