<svg xmlns="http://www.w3.org/2000/svg" viewBox="0 0 36 36"><defs><linearGradient id="linear-gradient" y1="18" x2="36" y2="18" gradientUnits="userSpaceOnUse"><stop offset="0" stop-color="#f5cd09"/><stop offset="1" stop-color="#fbac0c"/></linearGradient></defs><g id="Layer_2" data-name="Layer 2"><path d="M33.49 15.65A2.28 2.28 0 0 1 35 17.73v.54a2.28 2.28 0 0 1-1.51 2.08l-2.23.8a2.17 2.17 0 0 0-1.34 1.29c-.11.3-.22.59-.35.88a2.22 2.22 0 0 0 .06 1.85l1 2.09a2.25 2.25 0 0 1-.4 2.54l-.43.43a2.23 2.23 0 0 1-2.54.4l-2.09-1a2.22 2.22 0 0 0-1.85-.06c-.29.13-.58.24-.88.35a2.17 2.17 0 0 0-1.29 1.34l-.8 2.23A2.28 2.28 0 0 1 18.27 35h-.54a2.28 2.28 0 0 1-2.08-1.51l-.8-2.23a2.17 2.17 0 0 0-1.29-1.34c-.3-.11-.59-.22-.88-.35a2.22 2.22 0 0 0-1.85.06l-2.09 1a2.23 2.23 0 0 1-2.54-.4l-.43-.43a2.23 2.23 0 0 1-.4-2.54l1-2.09a2.22 2.22 0 0 0 .06-1.85c-.13-.29-.24-.58-.35-.88a2.17 2.17 0 0 0-1.34-1.29l-2.23-.8A2.27 2.27 0 0 1 1 18.27v-.54a2.27 2.27 0 0 1 1.51-2.08l2.23-.8a2.17 2.17 0 0 0 1.34-1.29c.11-.3.22-.59.35-.88a2.22 2.22 0 0 0-.06-1.85l-1-2.09a2.23 2.23 0 0 1 .4-2.54l.43-.43a2.23 2.23 0 0 1 2.54-.4l2.09 1a2.22 2.22 0 0 0 1.85.06c.29-.13.58-.24.88-.35a2.17 2.17 0 0 0 1.29-1.34l.8-2.23A2.28 2.28 0 0 1 17.73 1h.54a2.28 2.28 0 0 1 2.08 1.51l.8 2.23a2.17 2.17 0 0 0 1.29 1.34c.3.11.59.22.88.35a2.22 2.22 0 0 0 1.85-.06l2.09-1a2.25 2.25 0 0 1 2.54.4l.43.43a2.25 2.25 0 0 1 .4 2.54l-1 2.09a2.22 2.22 0 0 0-.06 1.85c.13.29.24.58.35.88a2.19 2.19 0 0 0 1.34 1.29zM18 13a5 5 0 0 1 3.52 8.52 4.93 4.93 0 0 1-7 0 4.93 4.93 0 0 1 0-7A4.84 4.84 0 0 1 18 13z" fill="none" stroke-miterlimit="10" stroke-width="2" stroke="url(#linear-gradient)" id="Layer_1-2" data-name="Layer 1"/></g></svg>