<svg xmlns="http://www.w3.org/2000/svg" viewBox="0 0 26.33 30.13"><defs><linearGradient id="linear-gradient" y1="15.06" x2="26.33" y2="15.06" gradientUnits="userSpaceOnUse"><stop offset="0" stop-color="#f5cd09"/><stop offset="1" stop-color="#fbac0c"/></linearGradient></defs><g id="Layer_2" data-name="Layer 2"><g id="Layer_1-2" data-name="Layer 1"><path d="M26 5.39c0 .06 3.62 20.67-12.52 24.71a.42.42 0 0 1-.27 0C-2.73 26.16.16 6.14.27 5.42a.29.29 0 0 1 0-.09.47.47 0 0 1 .6-.33C6.84 6.77 12.36.64 12.75.19a.23.23 0 0 1 .07-.07.46.46 0 0 1 .66 0S19.19 6.82 25.36 5h.08a.47.47 0 0 1 .54.39zm-1.69 1.79a12.22 12.22 0 0 1-8.18-2.25 21.32 21.32 0 0 1-3-2.4A21.93 21.93 0 0 1 9.91 5 12.45 12.45 0 0 1 2 7.15a30.36 30.36 0 0 0 .58 9c1.34 6 4.65 10.41 10.7 12.05 6-1.94 9.33-6.48 10.58-12.59a30.84 30.84 0 0 0 .46-8.42z" fill="url(#linear-gradient)" id="Layer_1-3" data-name="Layer_1"/></g></g></svg>