<svg id="SVGDoc" width="21" height="18" xmlns="http://www.w3.org/2000/svg" version="1.1"><path d="M20.378 2.78a8.77 8.77 0 0 1-2.344.664c.885-.547 1.485-1.303 1.797-2.268a8.344 8.344 0 0 1-2.617.978 4.631 4.631 0 0 0-1.348-.94 3.913 3.913 0 0 0-1.66-.351c-.73 0-1.407.182-2.032.547a4.017 4.017 0 0 0-1.484 1.506 4.076 4.076 0 0 0-.547 2.054c0 .313.025.626.078.939a11.326 11.326 0 0 1-4.707-1.252 11.314 11.314 0 0 1-3.731-3.05 3.936 3.936 0 0 0-.586 2.053c0 .717.169 1.376.508 1.975.338.6.78 1.095 1.328 1.486a3.845 3.845 0 0 1-1.836-.547v.079c0 .964.312 1.825.937 2.581a4.13 4.13 0 0 0 2.344 1.447c-.365.079-.73.118-1.093.118-.235 0-.483-.013-.743-.04.26.81.736 1.481 1.426 2.015.69.535 1.49.802 2.403.802-1.511 1.174-3.217 1.76-5.118 1.76-.365 0-.69-.012-.977-.039 1.901 1.226 3.998 1.839 6.29 1.839 2.396 0 4.518-.613 6.368-1.839 1.692-1.095 3.008-2.568 3.945-4.42.912-1.747 1.368-3.56 1.368-5.437 0-.235-.014-.404-.04-.51a9.025 9.025 0 0 0 2.071-2.15z" fill="#eae6ff"/></svg>