<svg xmlns="http://www.w3.org/2000/svg" xmlns:xlink="http://www.w3.org/1999/xlink" viewBox="0 0 24.32 27.55"><defs><linearGradient id="linear-gradient" y1="13.77" x2="22.03" y2="13.77" gradientUnits="userSpaceOnUse"><stop offset="0" stop-color="#f5cd09"/><stop offset="1" stop-color="#fbac0c"/></linearGradient><linearGradient id="linear-gradient-2" x1="15.54" y1="24.03" x2="24.32" y2="24.03" xlink:href="#linear-gradient"/></defs><g id="Layer_2" data-name="Layer 2"><g id="Layer_1-2" data-name="Layer 1"><path d="M13.89 25.62h-9a3 3 0 0 1-3-3v-1.54a7.23 7.23 0 0 1 7.22-7.22h4.68a7.19 7.19 0 0 1 6.39 3.87 1 1 0 0 0 1.3.4 1 1 0 0 0 .41-1.3 9.13 9.13 0 0 0-6-4.62 6.94 6.94 0 1 0-9 0 9.16 9.16 0 0 0-7 8.88v1.54a4.93 4.93 0 0 0 4.93 4.93h9a1 1 0 1 0 0-1.93zM6.47 6.93a5 5 0 1 1 5 5 5 5 0 0 1-5-5z" fill="url(#linear-gradient)"/><path d="M24 21.06a1 1 0 0 0-1.36 0L18.79 25l-1.61-1.6a1 1 0 0 0-1.36 1.36L18.1 27a1 1 0 0 0 .69.29 1.15 1.15 0 0 0 .36-.07 1.08 1.08 0 0 0 .32-.22L24 22.42a1 1 0 0 0 0-1.36z" fill="url(#linear-gradient-2)"/></g></g></svg>