<svg id="SVGDoc" width="21" height="15" xmlns="http://www.w3.org/2000/svg" version="1.1"><path d="M20.992 7.5l-.038 1.956c-.077 1.461-.205 2.543-.384 3.247a2.74 2.74 0 0 1-.692 1.173c-.334.34-.73.574-1.192.704-.666.184-2.23.314-4.689.392l-3.498.039-3.497-.04c-2.46-.077-4.024-.207-4.69-.39a2.645 2.645 0 0 1-1.191-.705 2.728 2.728 0 0 1-.692-1.173c-.18-.704-.307-1.786-.384-3.247L.006 7.5c0-.573.013-1.225.039-1.956C.122 4.11.249 3.04.429 2.336a2.72 2.72 0 0 1 .692-1.212A2.639 2.639 0 0 1 2.312.42c.666-.183 2.23-.313 4.69-.391l3.497-.04 3.498.04c2.46.078 4.023.208 4.69.391a2.725 2.725 0 0 1 1.883 1.916c.179.705.307 1.774.384 3.208zm-7.149 0L8.347 4.33v6.377z" fill="#eae6ff"/></svg>